<svg width="59" height="52" viewBox="0 0 59 52" fill="none" xmlns="http://www.w3.org/2000/svg">
<path d="M48.0648 33.8826C47.7178 33.9976 47.3648 34.1086 46.9998 34.2156C46.1129 31.4671 45.0397 28.7822 43.7878 26.1796C44.9924 23.6111 46.0237 20.9648 46.8748 18.2586C47.5238 18.4466 48.1538 18.6446 48.7608 18.8586C54.6308 20.8796 58.2118 23.8676 58.2118 26.1696C58.2118 28.6216 54.3448 31.8056 48.0658 33.8866L48.0648 33.8826ZM45.4598 39.0456C46.0727 41.7942 46.1744 44.6321 45.7598 47.4176C45.3818 49.4546 44.6218 50.8116 43.6828 51.3556C41.6828 52.5126 37.4078 51.0086 32.7978 47.0416C32.2692 46.5869 31.7358 46.1022 31.1978 45.5876C33.1202 43.4592 34.8966 41.2034 36.5148 38.8356C39.4058 38.5918 42.2766 38.1494 45.1068 37.5116C45.2362 38.0336 45.3505 38.5452 45.4498 39.0466L45.4598 39.0456ZM19.1118 51.1586C17.1588 51.8486 15.6028 51.8676 14.6628 51.3256C12.6628 50.1716 11.8298 45.7166 12.9628 39.7406C13.0962 39.0346 13.2505 38.3326 13.4258 37.6346C16.2442 38.2401 19.1004 38.6537 21.9748 38.8726C23.6405 41.232 25.4594 43.4796 27.4198 45.6006C27.0258 45.9812 26.6228 46.3522 26.2108 46.7136C24.1369 48.6186 21.7302 50.1257 19.1108 51.1596L19.1118 51.1586ZM9.96183 33.8706C7.27496 33.0256 4.76652 31.6934 2.56183 29.9406C0.989829 28.5896 0.199829 27.2516 0.199829 26.1656C0.199829 23.8556 3.64383 20.9096 9.38783 18.9066C10.1085 18.6566 10.8362 18.4276 11.5708 18.2196C12.4237 20.9555 13.4566 23.632 14.6628 26.2316C13.4417 28.8684 12.3961 31.5829 11.5328 34.3576C11.0035 34.2069 10.4798 34.0436 9.96183 33.8676V33.8706ZM13.0288 12.9886C11.8368 6.89556 12.6288 2.29956 14.6208 1.14656C16.7428 -0.0824382 21.4358 1.66956 26.3818 6.06156C26.6978 6.34256 27.0158 6.63656 27.3338 6.94056C25.3881 9.04787 23.5842 11.2818 21.9338 13.6276C19.0867 13.8831 16.2591 14.3226 13.4688 14.9436C13.3068 14.2956 13.1615 13.6439 13.0328 12.9886H13.0288ZM40.3918 19.7456C39.7718 18.6742 39.1288 17.6169 38.4628 16.5736C40.4868 16.8286 42.4258 17.1736 44.2468 17.5846C43.6624 19.4382 42.9849 21.2612 42.2168 23.0466C41.6308 21.9339 41.0225 20.8339 40.3918 19.7466V19.7456ZM29.2338 8.87656C30.5533 10.3151 31.7992 11.8193 32.9668 13.3836C30.4688 13.2656 27.9688 13.2656 25.4668 13.3836C26.6988 11.7586 27.9618 10.2486 29.2318 8.88356L29.2338 8.87656ZM17.9998 19.7636C17.3778 20.8429 16.7808 21.9362 16.2088 23.0436C15.4228 21.1726 14.7478 19.3326 14.1998 17.5586C16.0098 17.1536 17.9398 16.8226 19.9508 16.5716C19.2775 17.6216 18.6292 18.6882 18.0058 19.7716L17.9998 19.7636ZM19.9998 35.9576C18.0364 35.7445 16.0851 35.4307 14.1538 35.0176C14.7138 33.2086 15.4038 31.3296 16.2098 29.4176C16.7838 30.5256 17.3838 31.6196 18.0098 32.6996C18.6478 33.8009 19.3118 34.8869 20.0018 35.9576H19.9998ZM29.2998 43.6466C28.0158 42.2606 26.7348 40.7276 25.4828 39.0786C26.6975 39.1266 27.9345 39.1506 29.1938 39.1506C30.4872 39.1506 31.7635 39.1222 33.0228 39.0656C31.8638 40.6553 30.6242 42.1846 29.3088 43.6476L29.2998 43.6466ZM42.2428 29.3206C43.0489 31.1424 43.7599 33.005 44.3728 34.9006C42.4191 35.3397 40.4437 35.6765 38.4548 35.9096C39.1255 34.8469 39.7748 33.7709 40.4028 32.6816C41.0408 31.5749 41.6542 30.4546 42.2428 29.3206ZM38.0558 31.3276C37.0952 32.9942 36.0808 34.6309 35.0128 36.2376C33.1308 36.3716 31.1858 36.4376 29.2038 36.4376C27.2218 36.4376 25.3098 36.3766 23.4608 36.2566C22.3655 34.6566 21.3322 33.0172 20.3608 31.3386C19.3942 29.6719 18.4922 27.9682 17.6548 26.2276C18.4895 24.4896 19.3895 22.7849 20.3548 21.1136C21.3175 19.4429 22.3428 17.8096 23.4308 16.2136C25.3178 16.0706 27.2518 15.9966 29.2068 15.9966C31.1618 15.9966 33.1068 16.0716 34.9938 16.2156C36.0698 17.8056 37.0885 19.4322 38.0498 21.0956C39.0112 22.7589 39.9228 24.4556 40.7848 26.1856C39.9375 27.9289 39.0288 29.6406 38.0588 31.3206L38.0558 31.3276ZM43.6458 1.06556C45.7698 2.29056 46.5958 7.23056 45.2618 13.7096C45.1745 14.1316 45.0795 14.5519 44.9768 14.9706C42.1822 14.3372 39.3486 13.8895 36.4948 13.6306C34.8599 11.2819 33.0685 9.04618 31.1328 6.93856C31.6082 6.48056 32.0945 6.03456 32.5918 5.60056C37.2748 1.52456 41.6518 -0.0844376 43.6468 1.06556H43.6458Z" fill="white"/>
</svg>
